<svg preserveAspectRatio="none" width="100%" height="100%" overflow="visible" style="display: block;" viewBox="0 0 16 20" fill="none" xmlns="http://www.w3.org/2000/svg">
<path id="Vector" d="M0 2.25C0 1.00736 1.00736 0 2.25 0H10.25C11.4926 0 12.5 1.00736 12.5 2.25V7.5H13.75C14.9926 7.5 16 8.5074 16 9.75V19.25C16 19.6642 15.6642 20 15.25 20H12.5V16.25C12.5 15.5596 11.9404 15 11.25 15H4.75C4.05964 15 3.5 15.5596 3.5 16.25V20H0.75C0.33579 20 0 19.6642 0 19.25V2.25ZM11 16.5V20H8.75V16.5H11ZM7.25 16.5V20H5V16.5H7.25ZM3.5 4.5C3.5 5.05228 3.94772 5.5 4.5 5.5C5.05229 5.5 5.5 5.05228 5.5 4.5C5.5 3.94772 5.05229 3.5 4.5 3.5C3.94772 3.5 3.5 3.94772 3.5 4.5ZM4.5 10.5C3.94772 10.5 3.5 10.9477 3.5 11.5C3.5 12.0523 3.94772 12.5 4.5 12.5C5.05229 12.5 5.5 12.0523 5.5 11.5C5.5 10.9477 5.05229 10.5 4.5 10.5ZM4.5 7C3.94772 7 3.5 7.44771 3.5 8C3.5 8.5523 3.94772 9 4.5 9C5.05229 9 5.5 8.5523 5.5 8C5.5 7.44771 5.05229 7 4.5 7ZM8 3.5C7.4477 3.5 7 3.94772 7 4.5C7 5.05228 7.4477 5.5 8 5.5C8.5523 5.5 9 5.05228 9 4.5C9 3.94772 8.5523 3.5 8 3.5ZM8 10.5C7.4477 10.5 7 10.9477 7 11.5C7 12.0523 7.4477 12.5 8 12.5C8.5523 12.5 9 12.0523 9 11.5C9 10.9477 8.5523 10.5 8 10.5ZM11.5 10.5C10.9477 10.5 10.5 10.9477 10.5 11.5C10.5 12.0523 10.9477 12.5 11.5 12.5C12.0523 12.5 12.5 12.0523 12.5 11.5C12.5 10.9477 12.0523 10.5 11.5 10.5ZM8 7C7.4477 7 7 7.44771 7 8C7 8.5523 7.4477 9 8 9C8.5523 9 9 8.5523 9 8C9 7.44771 8.5523 7 8 7Z" fill="var(--fill-0, #4279F6)"/>
</svg>
