<svg preserveAspectRatio="none" width="100%" height="100%" overflow="visible" style="display: block;" viewBox="0 0 19 20" fill="none" xmlns="http://www.w3.org/2000/svg">
<path id="Vector" d="M9.51083 0C10.2557 0.00867694 10.9976 0.0956516 11.7245 0.259529C12.0418 0.331068 12.2792 0.598473 12.3152 0.925089L12.4879 2.49109C12.5662 3.21012 13.1668 3.75472 13.8828 3.75548C14.0753 3.75578 14.2657 3.71527 14.4436 3.63573L15.8648 3.00468C16.1604 2.87343 16.5058 2.94499 16.7264 3.18321C17.7536 4.29195 18.5185 5.62171 18.9638 7.07241C19.0598 7.38523 18.9493 7.72518 18.6885 7.91951L17.4287 8.85807C17.0692 9.12495 16.857 9.54874 16.857 9.99951C16.857 10.4502 17.0692 10.874 17.4295 11.1415L18.6903 12.0803C18.9512 12.2746 19.0618 12.6146 18.9658 12.9275C18.5207 14.378 17.7562 15.7076 16.7297 16.8166C16.5093 17.0547 16.1642 17.1265 15.8686 16.9955L14.4415 16.3636C14.0332 16.183 13.5644 16.2095 13.1785 16.4349C12.7927 16.6602 12.5359 17.0577 12.4869 17.5054L12.3153 19.0712C12.2799 19.3941 12.0477 19.6597 11.735 19.7349C10.2652 20.0884 8.73384 20.0884 7.264 19.7349C6.95133 19.6597 6.71909 19.3941 6.68371 19.0712L6.5124 17.5077C6.46208 17.0609 6.20491 16.6647 5.81938 16.44C5.43387 16.2154 4.96575 16.1891 4.55884 16.3687L3.13145 17.0007C2.8358 17.1316 2.49059 17.0598 2.27014 16.8215C1.24305 15.7113 0.4785 14.38 0.0340479 12.928C-0.061684 12.6153 0.0489242 12.2755 0.309706 12.0814L1.57138 11.1419C1.93074 10.875 2.14298 10.4512 2.14298 10.0005C2.14298 9.54977 1.93074 9.12597 1.5709 8.85879L0.31002 7.92089C0.0488633 7.72663 -0.0618464 7.38646 0.0342204 7.07343C0.479444 5.62273 1.24439 4.29297 2.27151 3.18423C2.49218 2.94602 2.83755 2.87446 3.13315 3.00571L4.55419 3.63665C4.96307 3.81802 5.43315 3.79062 5.82075 3.56174C6.20668 3.33549 6.46362 2.93767 6.51322 2.48989L6.6858 0.925089C6.72184 0.598309 6.9594 0.330811 7.27696 0.259426C8.00484 0.0958156 8.74754 0.00887182 9.51083 0ZM9.49815 6.92304C7.8168 6.92304 6.45389 8.30064 6.45389 10C6.45389 11.6993 7.8168 13.077 9.49815 13.077C11.1794 13.077 12.5424 11.6993 12.5424 10C12.5424 8.30064 11.1794 6.92304 9.49815 6.92304Z" fill="var(--fill-0, #4279F6)"/>
</svg>
