<svg preserveAspectRatio="none" width="100%" height="100%" overflow="visible" style="display: block;" viewBox="0 0 50 50" fill="none" xmlns="http://www.w3.org/2000/svg">
<g id="Icon">
<rect width="50" height="50" rx="25" fill="url(#paint0_linear_45_43)"/>
<path id="Education Icon" d="M29.4748 14.7054C31.0818 13.0983 33.6875 13.0982 35.2947 14.7052C36.9017 16.3121 36.9017 18.9174 35.2948 20.5244L34.2697 21.5496C35.724 23.0096 35.7222 25.3718 34.2643 26.8295L32.2134 28.8802C31.8766 29.2171 31.3306 29.2171 30.9937 28.8802C30.6569 28.5434 30.6569 27.9975 30.9937 27.6606L33.0446 25.6099C33.8287 24.8257 33.8305 23.5557 33.05 22.7693L21.5522 34.2676C21.0848 34.7351 20.4968 35.0637 19.8537 35.2168L14.5623 36.4765C14.2709 36.5459 13.9644 36.4591 13.7526 36.2474C13.5408 36.0356 13.4541 35.7292 13.5235 35.4378L14.7834 30.1465C14.9365 29.5036 15.2649 28.9159 15.7322 28.4486L29.4748 14.7054Z" fill="var(--fill-0, #FCFEFF)"/>
</g>
<defs>
<linearGradient id="paint0_linear_45_43" x1="0" y1="0" x2="50" y2="50" gradientUnits="userSpaceOnUse">
<stop stop-color="#4279F6"/>
<stop offset="1" stop-color="#1550EC"/>
</linearGradient>
</defs>
</svg>
