<svg preserveAspectRatio="none" width="100%" height="100%" overflow="visible" style="display: block;" viewBox="0 0 50 50" fill="none" xmlns="http://www.w3.org/2000/svg">
<g id="Icon">
<rect width="50" height="50" rx="25" fill="url(#paint0_linear_45_23)"/>
<path id="Healthcare Icon" d="M13.5 17.6528C13.5 15.3593 15.3593 13.5 17.6528 13.5H32.3472C34.6407 13.5 36.5 15.3593 36.5 17.6528V32.3472C36.5 34.6407 34.6407 36.5 32.3472 36.5H17.6528C15.3593 36.5 13.5 34.6407 13.5 32.3472V17.6528ZM25.9583 19.5694C25.9583 19.0402 25.5293 18.6111 25 18.6111C24.4707 18.6111 24.0417 19.0402 24.0417 19.5694V24.0417H19.5694C19.0402 24.0417 18.6111 24.4707 18.6111 25C18.6111 25.5293 19.0402 25.9583 19.5694 25.9583H24.0417V30.4306C24.0417 30.9598 24.4707 31.3889 25 31.3889C25.5293 31.3889 25.9583 30.9598 25.9583 30.4306V25.9583H30.4306C30.9598 25.9583 31.3889 25.5293 31.3889 25C31.3889 24.4707 30.9598 24.0417 30.4306 24.0417H25.9583V19.5694Z" fill="var(--fill-0, #FCFEFF)"/>
</g>
<defs>
<linearGradient id="paint0_linear_45_23" x1="0" y1="0" x2="50" y2="50" gradientUnits="userSpaceOnUse">
<stop stop-color="#4279F6"/>
<stop offset="1" stop-color="#1550EC"/>
</linearGradient>
</defs>
</svg>
