<svg preserveAspectRatio="none" width="100%" height="100%" overflow="visible" style="display: block;" viewBox="0 0 50 50" fill="none" xmlns="http://www.w3.org/2000/svg">
<g id="Icon">
<rect width="50" height="50" rx="25" fill="url(#paint0_linear_45_40)"/>
<path id="Transportation Icon" d="M29.8509 13.5C31.7552 13.5 33.4153 14.7608 33.8782 16.5586L34.3703 18.4738H35.5366C36.0217 18.4738 36.4226 18.8247 36.4861 19.2799L36.4948 19.4064C36.4948 19.8786 36.1343 20.2688 35.6667 20.3305L35.5366 20.339H34.8519L35.1176 21.3667C35.9465 21.8576 36.5 22.7451 36.5 23.7585V34.3239C36.5 35.5258 35.4991 36.5 34.2644 36.5H32.3429C31.1082 36.5 30.1073 35.5258 30.1073 34.3239L30.106 32.7736H19.8925L19.8926 34.3239C19.8926 35.5258 18.8917 36.5 17.657 36.5H15.7356C14.5009 36.5 13.5 35.5258 13.5 34.3239V23.7585C13.5 22.7454 14.0534 21.8579 14.8819 21.3669L15.1467 20.339H14.4581C13.9731 20.339 13.5722 19.9882 13.5088 19.533L13.5 19.4064C13.5 18.9343 13.8604 18.5441 14.3281 18.4824L14.4581 18.4738H15.6245L16.1175 16.5611C16.5796 14.7621 18.2403 13.5 20.1454 13.5H29.8509ZM17.9763 32.7736H15.415L15.4162 34.3239C15.4162 34.4955 15.5592 34.6348 15.7356 34.6348H17.657C17.8334 34.6348 17.9764 34.4955 17.9764 34.3239L17.9763 32.7736ZM34.5836 32.7736H32.0223L32.0236 34.3239C32.0236 34.4955 32.1665 34.6348 32.3429 34.6348H34.2644C34.4408 34.6348 34.5838 34.4955 34.5838 34.3239L34.5836 32.7736ZM27.2339 27.178H22.7605L22.6305 27.1865C22.1628 27.2483 21.8024 27.6385 21.8024 28.1106C21.8024 28.5828 22.1628 28.973 22.6305 29.0348L22.7605 29.0432H27.2339L27.3639 29.0348C27.8316 28.973 28.192 28.5828 28.192 28.1106C28.192 27.5956 27.7631 27.178 27.2339 27.178ZM31.3848 24.6911C30.6793 24.6911 30.1073 25.2478 30.1073 25.9346C30.1073 26.6212 30.6793 27.1779 31.3848 27.1779C32.0902 27.1779 32.6622 26.6212 32.6622 25.9346C32.6622 25.2478 32.0902 24.6911 31.3848 24.6911ZM18.6099 24.6911C17.9044 24.6911 17.3325 25.2478 17.3325 25.9346C17.3325 26.6212 17.9044 27.1779 18.6099 27.1779C19.3154 27.1779 19.8874 26.6212 19.8874 25.9346C19.8874 25.2478 19.3154 24.6911 18.6099 24.6911ZM29.8509 15.3652H20.1454C19.1196 15.3652 18.2254 16.0448 17.9766 17.0135L16.9627 20.9608H33.0365L32.0195 17.0121C31.7702 16.0441 30.8762 15.3652 29.8509 15.3652Z" fill="var(--fill-0, #FCFEFF)"/>
</g>
<defs>
<linearGradient id="paint0_linear_45_40" x1="0" y1="0" x2="50" y2="50" gradientUnits="userSpaceOnUse">
<stop stop-color="#4279F6"/>
<stop offset="1" stop-color="#1550EC"/>
</linearGradient>
</defs>
</svg>
