<svg preserveAspectRatio="none" width="100%" height="100%" overflow="visible" style="display: block;" viewBox="0 0 50 50" fill="none" xmlns="http://www.w3.org/2000/svg">
<g id="Icon">
<rect width="50" height="50" rx="25" fill="url(#paint0_linear_45_37)"/>
<path id="Shopping Icon" d="M19.375 16.95V19.25H17.6875C16.7555 19.25 16 20.0223 16 20.975V31.9C16 34.4405 18.0147 36.5 20.5 36.5H27.2607C26.5524 35.6476 26.125 34.5436 26.125 33.3375V16.95C26.125 16.5655 26.0635 16.1956 25.9498 15.8502C26.2594 15.4683 26.7269 15.225 27.25 15.225C28.182 15.225 28.9375 15.9973 28.9375 16.95V19.25H27.8125V33.3375C27.8125 35.0841 29.1976 36.5 30.9062 36.5C32.6149 36.5 34 35.0841 34 33.3375V20.975C34 20.0223 33.2445 19.25 32.3125 19.25H30.625V16.95C30.625 15.0446 29.114 13.5 27.25 13.5C26.3857 13.5 25.5971 13.8322 25 14.3785C24.4029 13.8322 23.6145 13.5 22.75 13.5C20.886 13.5 19.375 15.0446 19.375 16.95ZM21.0625 16.95C21.0625 15.9973 21.818 15.225 22.75 15.225C23.682 15.225 24.4375 15.9973 24.4375 16.95V19.25H21.0625V16.95Z" fill="var(--fill-0, #FCFEFF)"/>
</g>
<defs>
<linearGradient id="paint0_linear_45_37" x1="0" y1="0" x2="50" y2="50" gradientUnits="userSpaceOnUse">
<stop stop-color="#4279F6"/>
<stop offset="1" stop-color="#1550EC"/>
</linearGradient>
</defs>
</svg>
