<svg preserveAspectRatio="none" width="100%" height="100%" overflow="visible" style="display: block;" viewBox="0 0 50 50" fill="none" xmlns="http://www.w3.org/2000/svg">
<g id="Icon">
<rect width="50" height="50" rx="25" fill="url(#paint0_linear_45_30)"/>
<path id="Restaurant Icon" d="M15.7804 14.4381C15.8189 13.8894 16.2777 13.5 16.7902 13.5C17.3496 13.5 17.803 13.9529 17.803 14.5116V19.6809C17.803 20.0779 18.1252 20.3997 18.5227 20.3997C18.9202 20.3997 19.2424 20.0779 19.2424 19.6809V14.3626C19.2424 13.8862 19.6291 13.5 20.1061 13.5C20.583 13.5 20.9697 13.8862 20.9697 14.3626V19.6809C20.9697 20.0779 21.2919 20.3997 21.6894 20.3997C22.0869 20.3997 22.4091 20.0779 22.4091 19.6809V14.5116C22.4091 13.9529 22.8625 13.5 23.4218 13.5C23.9344 13.5 24.3933 13.8894 24.4317 14.4381C24.4812 15.1427 24.7121 18.5266 24.7121 20.4009C24.7121 21.954 23.9407 23.3272 22.7636 24.1588C22.515 24.3345 22.4551 24.5207 22.4613 24.6154C22.6027 26.7753 22.9848 32.6861 22.9848 33.6246C22.9848 35.2126 21.696 36.5 20.1061 36.5C18.5162 36.5 17.2273 35.2126 17.2273 33.6246C17.2273 32.6861 17.6094 26.7753 17.7508 24.6154C17.757 24.5207 17.6971 24.3345 17.4485 24.1588C16.2714 23.3272 15.5 21.954 15.5 20.4009C15.5 18.5266 15.7309 15.1427 15.7804 14.4381ZM26.4394 20.1133C26.4394 16.4609 29.4039 13.5 33.0606 13.5C33.5376 13.5 33.9242 13.8862 33.9242 14.3626V24.1388C33.9242 24.5042 34.0466 26.318 34.1829 28.3273L34.1893 28.4225C34.3381 30.6175 34.5 33.0043 34.5 33.6246C34.5 35.2126 33.2111 36.5 31.6212 36.5C30.0313 36.5 28.7424 35.2126 28.7424 33.6246C28.7424 33.0328 28.8896 30.6205 29.0321 28.4094C29.1041 27.2922 29.1762 26.2098 29.2302 25.4069L29.2575 25.0014H28.4545C27.3416 25.0014 26.4394 24.1003 26.4394 22.9887V20.1133Z" fill="var(--fill-0, #FCFEFF)"/>
</g>
<defs>
<linearGradient id="paint0_linear_45_30" x1="0" y1="0" x2="50" y2="50" gradientUnits="userSpaceOnUse">
<stop stop-color="#4279F6"/>
<stop offset="1" stop-color="#1550EC"/>
</linearGradient>
</defs>
</svg>
